<svg width="20" height="20" viewBox="0 0 20 20" fill="none" xmlns="http://www.w3.org/2000/svg">
<path d="M0.700001 11.92C0.98099 12.2573 1.3326 12.5289 1.73001 12.7155C2.12743 12.9021 2.56096 12.9992 3 13L7.56 13L7 14.43C6.76707 15.0561 6.6895 15.7293 6.77394 16.392C6.85838 17.0547 7.10231 17.687 7.48481 18.2347C7.86732 18.7824 8.37697 19.2292 8.97006 19.5366C9.56315 19.8441 10.222 20.0031 10.89 20C11.0824 19.9996 11.2705 19.9437 11.4319 19.839C11.5933 19.7344 11.7211 19.5854 11.8 19.41L14.65 13L17 13C17.7957 13 18.5587 12.6839 19.1213 12.1213C19.6839 11.5587 20 10.7956 20 9.99996L20 2.99996C20 2.20431 19.6839 1.44124 19.1213 0.878635C18.5587 0.316027 17.7957 -4.40617e-05 17 -4.41313e-05L4.27 -4.52442e-05C3.56819 0.000189298 2.88868 0.246464 2.34968 0.695931C1.81068 1.1454 1.44633 1.76961 1.32 2.45995L0.0500002 9.45995C-0.0285502 9.89257 -0.0110427 10.3372 0.101281 10.7623C0.213605 11.1874 0.418002 11.5826 0.700001 11.92ZM15 1.99996L17 1.99996C17.2652 1.99996 17.5196 2.10531 17.7071 2.29285C17.8946 2.48038 18 2.73474 18 2.99996L18 9.99996C18 10.2652 17.8946 10.5195 17.7071 10.7071C17.5196 10.8946 17.2652 11 17 11L15 11L15 1.99996ZM2 9.81995L3.27 2.81995C3.3126 2.587 3.43649 2.37672 3.61961 2.22655C3.80274 2.07639 4.03321 1.99609 4.27 1.99995L13 1.99996L13 11.79L10.28 17.91C10 17.8283 9.73999 17.6895 9.51634 17.5024C9.29269 17.3152 9.11028 17.0837 8.9806 16.8225C8.85093 16.5612 8.77682 16.276 8.76294 15.9847C8.74907 15.6933 8.79574 15.4023 8.9 15.13L9.43 13.7C9.54293 13.3977 9.58106 13.0726 9.54113 12.7524C9.50119 12.4322 9.38438 12.1265 9.20067 11.8612C9.01695 11.596 8.77179 11.3791 8.48609 11.2291C8.2004 11.0791 7.88267 11.0005 7.56 11L3 11C2.85309 11.0002 2.70793 10.9681 2.57485 10.9058C2.44176 10.8436 2.32402 10.7528 2.23 10.64C2.13367 10.5286 2.0631 10.3974 2.02334 10.2557C1.98359 10.1139 1.97562 9.96514 2 9.81995Z" fill="#F6F8FB"/>
</svg>
