<svg width="16" height="12" viewBox="0 0 16 12" fill="none" xmlns="http://www.w3.org/2000/svg">
<path d="M15.92 6.62C15.8724 6.49725 15.801 6.3851 15.71 6.29L12.71 3.29C12.5217 3.1017 12.2663 2.99591 12 2.99591C11.7337 2.99591 11.4783 3.1017 11.29 3.29C11.1017 3.4783 10.9959 3.7337 10.9959 4C10.9959 4.2663 11.1017 4.5217 11.29 4.71L12.59 6H3C2.73478 6 2.48043 5.89464 2.29289 5.70711C2.10536 5.51957 2 5.26522 2 5V1C2 0.734784 1.89464 0.48043 1.70711 0.292893C1.51957 0.105357 1.26522 0 1 0C0.734784 0 0.48043 0.105357 0.292893 0.292893C0.105357 0.48043 0 0.734784 0 1V5C0 5.79565 0.316071 6.55871 0.87868 7.12132C1.44129 7.68393 2.20435 8 3 8H12.59L11.29 9.29C11.1963 9.38296 11.1219 9.49356 11.0711 9.61542C11.0203 9.73728 10.9942 9.86799 10.9942 10C10.9942 10.132 11.0203 10.2627 11.0711 10.3846C11.1219 10.5064 11.1963 10.617 11.29 10.71C11.383 10.8037 11.4936 10.8781 11.6154 10.9289C11.7373 10.9797 11.868 11.0058 12 11.0058C12.132 11.0058 12.2627 10.9797 12.3846 10.9289C12.5064 10.8781 12.617 10.8037 12.71 10.71L15.71 7.71C15.801 7.6149 15.8724 7.50275 15.92 7.38C16.02 7.13654 16.02 6.86346 15.92 6.62Z" fill="#F6F8FB"/>
</svg>
