<svg width="20" height="21" viewBox="0 0 20 21" fill="none" xmlns="http://www.w3.org/2000/svg">
<path d="M12 17.0001C12.2653 17.0001 12.5196 16.8948 12.7071 16.7073C12.8947 16.5197 13 16.2654 13 16.0001V14.0001C13 13.7349 12.8947 13.4806 12.7071 13.293C12.5196 13.1055 12.2653 13.0001 12 13.0001C11.7348 13.0001 11.4805 13.1055 11.2929 13.293C11.1054 13.4806 11 13.7349 11 14.0001V16.0001C11 16.2654 11.1054 16.5197 11.2929 16.7073C11.4805 16.8948 11.7348 17.0001 12 17.0001ZM8.00004 17.0001C8.26525 17.0001 8.51961 16.8948 8.70714 16.7073C8.89468 16.5197 9.00004 16.2654 9.00004 16.0001V14.0001C9.00004 13.7349 8.89468 13.4806 8.70714 13.293C8.51961 13.1055 8.26525 13.0001 8.00004 13.0001C7.73482 13.0001 7.48047 13.1055 7.29293 13.293C7.10539 13.4806 7.00004 13.7349 7.00004 14.0001V16.0001C7.00004 16.2654 7.10539 16.5197 7.29293 16.7073C7.48047 16.8948 7.73482 17.0001 8.00004 17.0001ZM17 5.00015H15.62L13.89 1.55015C13.8372 1.4232 13.7587 1.30852 13.6595 1.21328C13.5603 1.11803 13.4426 1.04427 13.3136 0.996591C13.1846 0.948917 13.0472 0.928357 12.9099 0.936197C12.7726 0.944037 12.6384 0.980109 12.5157 1.04216C12.3929 1.10421 12.2843 1.1909 12.1966 1.29682C12.1089 1.40274 12.044 1.5256 12.006 1.65774C11.9679 1.78988 11.9575 1.92845 11.9754 2.0648C11.9933 2.20114 12.0391 2.33232 12.11 2.45015L13.38 5.00015H6.62004L7.89004 2.45015C7.9871 2.21706 7.9924 1.95587 7.90486 1.71904C7.81732 1.4822 7.64343 1.28725 7.4181 1.17331C7.19277 1.05938 6.93268 1.03491 6.69005 1.10481C6.44742 1.17471 6.24022 1.3338 6.11004 1.55015L4.38004 5.00015H3.00004C2.29323 5.0109 1.61291 5.2709 1.07909 5.73428C0.545259 6.19767 0.192211 6.83468 0.0822073 7.53296C-0.0277959 8.23124 0.112313 8.94594 0.477823 9.551C0.843332 10.1561 1.41076 10.6126 2.08004 10.8401L2.82004 18.3001C2.89466 19.0427 3.24338 19.7308 3.79811 20.2301C4.35284 20.7293 5.07374 21.0039 5.82004 21.0001H14.2C14.9463 21.0039 15.6672 20.7293 16.222 20.2301C16.7767 19.7308 17.1254 19.0427 17.2 18.3001L17.94 10.8401C18.6108 10.6119 19.1791 10.1537 19.5443 9.54663C19.9096 8.93955 20.0482 8.22278 19.9356 7.52329C19.823 6.8238 19.4665 6.18674 18.9292 5.72492C18.3919 5.26311 17.7085 5.00636 17 5.00015ZM15.19 18.1001C15.1652 18.3477 15.0489 18.577 14.864 18.7435C14.6791 18.9099 14.4388 19.0014 14.19 19.0001H5.81004C5.56127 19.0014 5.32097 18.9099 5.13606 18.7435C4.95115 18.577 4.83491 18.3477 4.81004 18.1001L4.10004 11.0001H15.9L15.19 18.1001ZM17 9.00015H3.00004C2.73482 9.00015 2.48047 8.89479 2.29293 8.70726C2.10539 8.51972 2.00004 8.26537 2.00004 8.00015C2.00004 7.73493 2.10539 7.48058 2.29293 7.29304C2.48047 7.10551 2.73482 7.00015 3.00004 7.00015H17C17.2653 7.00015 17.5196 7.10551 17.7071 7.29304C17.8947 7.48058 18 7.73493 18 8.00015C18 8.26537 17.8947 8.51972 17.7071 8.70726C17.5196 8.89479 17.2653 9.00015 17 9.00015Z" fill="#F6F8FB"/>
</svg>
