<svg width="20" height="20" viewBox="0 0 20 20" fill="none" xmlns="http://www.w3.org/2000/svg">
<path d="M13 15C12.8022 15 12.6089 15.0586 12.4444 15.1685C12.28 15.2784 12.1518 15.4346 12.0761 15.6173C12.0004 15.8 11.9806 16.0011 12.0192 16.1951C12.0578 16.3891 12.153 16.5673 12.2929 16.7071C12.4327 16.847 12.6109 16.9422 12.8049 16.9808C12.9989 17.0194 13.2 16.9996 13.3827 16.9239C13.5654 16.8482 13.7216 16.72 13.8315 16.5556C13.9414 16.3911 14 16.1978 14 16C14 15.7348 13.8946 15.4804 13.7071 15.2929C13.5196 15.1054 13.2652 15 13 15ZM7 15H4C3.73478 15 3.48043 15.1054 3.29289 15.2929C3.10536 15.4804 3 15.7348 3 16C3 16.2652 3.10536 16.5196 3.29289 16.7071C3.48043 16.8946 3.73478 17 4 17H7C7.26522 17 7.51957 16.8946 7.70711 16.7071C7.89464 16.5196 8 16.2652 8 16C8 15.7348 7.89464 15.4804 7.70711 15.2929C7.51957 15.1054 7.26522 15 7 15ZM16 15C15.8022 15 15.6089 15.0586 15.4444 15.1685C15.28 15.2784 15.1518 15.4346 15.0761 15.6173C15.0004 15.8 14.9806 16.0011 15.0192 16.1951C15.0578 16.3891 15.153 16.5673 15.2929 16.7071C15.4327 16.847 15.6109 16.9422 15.8049 16.9808C15.9989 17.0194 16.2 16.9996 16.3827 16.9239C16.5654 16.8482 16.7216 16.72 16.8315 16.5556C16.9414 16.3911 17 16.1978 17 16C17 15.7348 16.8946 15.4804 16.7071 15.2929C16.5196 15.1054 16.2652 15 16 15ZM13 9C12.8022 9 12.6089 9.05865 12.4444 9.16853C12.28 9.27841 12.1518 9.43459 12.0761 9.61732C12.0004 9.80004 11.9806 10.0011 12.0192 10.1951C12.0578 10.3891 12.153 10.5673 12.2929 10.7071C12.4327 10.847 12.6109 10.9422 12.8049 10.9808C12.9989 11.0194 13.2 10.9996 13.3827 10.9239C13.5654 10.8482 13.7216 10.72 13.8315 10.5556C13.9414 10.3911 14 10.1978 14 10C14 9.73478 13.8946 9.48043 13.7071 9.29289C13.5196 9.10536 13.2652 9 13 9ZM7 9H4C3.73478 9 3.48043 9.10536 3.29289 9.29289C3.10536 9.48043 3 9.73478 3 10C3 10.2652 3.10536 10.5196 3.29289 10.7071C3.48043 10.8946 3.73478 11 4 11H7C7.26522 11 7.51957 10.8946 7.70711 10.7071C7.89464 10.5196 8 10.2652 8 10C8 9.73478 7.89464 9.48043 7.70711 9.29289C7.51957 9.10536 7.26522 9 7 9ZM16 3C15.8022 3 15.6089 3.05865 15.4444 3.16853C15.28 3.27841 15.1518 3.43459 15.0761 3.61732C15.0004 3.80004 14.9806 4.00111 15.0192 4.19509C15.0578 4.38907 15.153 4.56725 15.2929 4.70711C15.4327 4.84696 15.6109 4.9422 15.8049 4.98079C15.9989 5.01937 16.2 4.99957 16.3827 4.92388C16.5654 4.84819 16.7216 4.72002 16.8315 4.55557C16.9414 4.39112 17 4.19778 17 4C17 3.73478 16.8946 3.48043 16.7071 3.29289C16.5196 3.10536 16.2652 3 16 3ZM16 9C15.8022 9 15.6089 9.05865 15.4444 9.16853C15.28 9.27841 15.1518 9.43459 15.0761 9.61732C15.0004 9.80004 14.9806 10.0011 15.0192 10.1951C15.0578 10.3891 15.153 10.5673 15.2929 10.7071C15.4327 10.847 15.6109 10.9422 15.8049 10.9808C15.9989 11.0194 16.2 10.9996 16.3827 10.9239C16.5654 10.8482 16.7216 10.72 16.8315 10.5556C16.9414 10.3911 17 10.1978 17 10C17 9.73478 16.8946 9.48043 16.7071 9.29289C16.5196 9.10536 16.2652 9 16 9ZM20 3C20 2.20435 19.6839 1.44129 19.1213 0.87868C18.5587 0.316071 17.7956 0 17 0H3C2.20435 0 1.44129 0.316071 0.87868 0.87868C0.316071 1.44129 0 2.20435 0 3V5C0.00441061 5.74005 0.282211 6.45236 0.78 7C0.282211 7.54764 0.00441061 8.25994 0 9V11C0.00441061 11.7401 0.282211 12.4524 0.78 13C0.282211 13.5476 0.00441061 14.2599 0 15V17C0 17.7956 0.316071 18.5587 0.87868 19.1213C1.44129 19.6839 2.20435 20 3 20H17C17.7956 20 18.5587 19.6839 19.1213 19.1213C19.6839 18.5587 20 17.7956 20 17V15C19.9956 14.2599 19.7178 13.5476 19.22 13C19.7178 12.4524 19.9956 11.7401 20 11V9C19.9956 8.25994 19.7178 7.54764 19.22 7C19.7178 6.45236 19.9956 5.74005 20 5V3ZM18 17C18 17.2652 17.8946 17.5196 17.7071 17.7071C17.5196 17.8946 17.2652 18 17 18H3C2.73478 18 2.48043 17.8946 2.29289 17.7071C2.10536 17.5196 2 17.2652 2 17V15C2 14.7348 2.10536 14.4804 2.29289 14.2929C2.48043 14.1054 2.73478 14 3 14H17C17.2652 14 17.5196 14.1054 17.7071 14.2929C17.8946 14.4804 18 14.7348 18 15V17ZM18 11C18 11.2652 17.8946 11.5196 17.7071 11.7071C17.5196 11.8946 17.2652 12 17 12H3C2.73478 12 2.48043 11.8946 2.29289 11.7071C2.10536 11.5196 2 11.2652 2 11V9C2 8.73478 2.10536 8.48043 2.29289 8.29289C2.48043 8.10536 2.73478 8 3 8H17C17.2652 8 17.5196 8.10536 17.7071 8.29289C17.8946 8.48043 18 8.73478 18 9V11ZM18 5C18 5.26522 17.8946 5.51957 17.7071 5.70711C17.5196 5.89464 17.2652 6 17 6H3C2.73478 6 2.48043 5.89464 2.29289 5.70711C2.10536 5.51957 2 5.26522 2 5V3C2 2.73478 2.10536 2.48043 2.29289 2.29289C2.48043 2.10536 2.73478 2 3 2H17C17.2652 2 17.5196 2.10536 17.7071 2.29289C17.8946 2.48043 18 2.73478 18 3V5ZM13 3C12.8022 3 12.6089 3.05865 12.4444 3.16853C12.28 3.27841 12.1518 3.43459 12.0761 3.61732C12.0004 3.80004 11.9806 4.00111 12.0192 4.19509C12.0578 4.38907 12.153 4.56725 12.2929 4.70711C12.4327 4.84696 12.6109 4.9422 12.8049 4.98079C12.9989 5.01937 13.2 4.99957 13.3827 4.92388C13.5654 4.84819 13.7216 4.72002 13.8315 4.55557C13.9414 4.39112 14 4.19778 14 4C14 3.73478 13.8946 3.48043 13.7071 3.29289C13.5196 3.10536 13.2652 3 13 3ZM7 3H4C3.73478 3 3.48043 3.10536 3.29289 3.29289C3.10536 3.48043 3 3.73478 3 4C3 4.26522 3.10536 4.51957 3.29289 4.70711C3.48043 4.89464 3.73478 5 4 5H7C7.26522 5 7.51957 4.89464 7.70711 4.70711C7.89464 4.51957 8 4.26522 8 4C8 3.73478 7.89464 3.48043 7.70711 3.29289C7.51957 3.10536 7.26522 3 7 3Z" fill="#F6F8FB"/>
</svg>
