<svg width="20" height="18" viewBox="0 0 20 18" fill="none" xmlns="http://www.w3.org/2000/svg">
<path d="M7 14H11C12.3261 14 13.5979 13.4732 14.5355 12.5355C15.4732 11.5979 16 10.3261 16 9V8H17C17.7956 8 18.5587 7.68393 19.1213 7.12132C19.6839 6.55871 20 5.79565 20 5C20 4.20435 19.6839 3.44129 19.1213 2.87868C18.5587 2.31607 17.7956 2 17 2H16V1C16 0.734784 15.8946 0.48043 15.7071 0.292893C15.5196 0.105357 15.2652 0 15 0H3C2.73478 0 2.48043 0.105357 2.29289 0.292893C2.10536 0.48043 2 0.734784 2 1V9C2 10.3261 2.52678 11.5979 3.46447 12.5355C4.40215 13.4732 5.67392 14 7 14ZM16 4H17C17.2652 4 17.5196 4.10536 17.7071 4.29289C17.8946 4.48043 18 4.73478 18 5C18 5.26522 17.8946 5.51957 17.7071 5.70711C17.5196 5.89464 17.2652 6 17 6H16V4ZM4 2H14V9C14 9.79565 13.6839 10.5587 13.1213 11.1213C12.5587 11.6839 11.7956 12 11 12H7C6.20435 12 5.44129 11.6839 4.87868 11.1213C4.31607 10.5587 4 9.79565 4 9V2ZM19 16H1C0.734784 16 0.48043 16.1054 0.292893 16.2929C0.105357 16.4804 0 16.7348 0 17C0 17.2652 0.105357 17.5196 0.292893 17.7071C0.48043 17.8946 0.734784 18 1 18H19C19.2652 18 19.5196 17.8946 19.7071 17.7071C19.8946 17.5196 20 17.2652 20 17C20 16.7348 19.8946 16.4804 19.7071 16.2929C19.5196 16.1054 19.2652 16 19 16Z" fill="#F6F8FB"/>
</svg>
