<svg width="20" height="20" viewBox="0 0 20 20" fill="none" xmlns="http://www.w3.org/2000/svg">
<path d="M19 18H17.76L13.37 2.2C13.1951 1.56776 12.8177 1.01029 12.2958 0.612946C11.7738 0.215604 11.136 0.000298814 10.48 0H9.48C8.83088 0.00896863 8.20218 0.228257 7.68829 0.624943C7.1744 1.02163 6.80305 1.57431 6.63 2.2L2.24 18H1C0.734784 18 0.48043 18.1054 0.292893 18.2929C0.105357 18.4804 0 18.7348 0 19C0 19.2652 0.105357 19.5196 0.292893 19.7071C0.48043 19.8946 0.734784 20 1 20H19C19.2652 20 19.5196 19.8946 19.7071 19.7071C19.8946 19.5196 20 19.2652 20 19C20 18.7348 19.8946 18.4804 19.7071 18.2929C19.5196 18.1054 19.2652 18 19 18ZM8.56 2.73C8.62049 2.5137 8.75203 2.32406 8.93344 2.19163C9.11485 2.0592 9.33555 1.9917 9.56 2H10.56C10.7844 1.9917 11.0052 2.0592 11.1866 2.19163C11.368 2.32406 11.4995 2.5137 11.56 2.73L12.35 6H7.65L8.56 2.73ZM7.09 8H12.91L14 12H6L7.09 8ZM4.32 18L5.43 14H14.57L15.68 18H4.32Z" fill="#F6F8FB"/>
</svg>
