<svg width="10" height="12" viewBox="0 0 10 12" fill="none" xmlns="http://www.w3.org/2000/svg">
<path d="M4.29002 5.46C4.38298 5.55373 4.49359 5.62812 4.61544 5.67889C4.7373 5.72966 4.86801 5.7558 5.00002 5.7558C5.13203 5.7558 5.26274 5.72966 5.3846 5.67889C5.50646 5.62812 5.61706 5.55373 5.71002 5.46L8.71002 2.46C8.80589 2.36676 8.88245 2.25556 8.93533 2.13273C8.98822 2.0099 9.0164 1.87786 9.01826 1.74414C9.02011 1.61043 8.99561 1.47766 8.94616 1.35341C8.8967 1.22916 8.82326 1.11587 8.73002 1.02C8.63678 0.924137 8.52558 0.847576 8.40275 0.794689C8.27992 0.741802 8.14788 0.713625 8.01416 0.711768C7.88045 0.709911 7.74767 0.734409 7.62343 0.783865C7.49918 0.83332 7.38589 0.906763 7.29002 1L5.00002 3.34L2.71002 1C2.51641 0.811698 2.25593 0.708018 1.98588 0.711768C1.71583 0.715519 1.45833 0.826394 1.27002 1.02C1.08172 1.21361 0.978037 1.47409 0.981788 1.74414C0.985539 2.0142 1.09641 2.2717 1.29002 2.46L4.29002 5.46ZM7.29002 6.54L5.00002 8.84L2.71002 6.54C2.51641 6.3517 2.25593 6.24802 1.98588 6.25177C1.71583 6.25552 1.45833 6.36639 1.27002 6.56C1.08172 6.75361 0.978037 7.01409 0.981788 7.28414C0.985539 7.5542 1.09641 7.8117 1.29002 8L4.29002 11C4.38298 11.0937 4.49359 11.1681 4.61544 11.2189C4.7373 11.2697 4.86801 11.2958 5.00002 11.2958C5.13203 11.2958 5.26274 11.2697 5.3846 11.2189C5.50646 11.1681 5.61706 11.0937 5.71002 11L8.71002 8C8.89832 7.8117 9.00411 7.5563 9.00411 7.29C9.00411 7.0237 8.89832 6.76831 8.71002 6.58C8.52172 6.3917 8.26632 6.28591 8.00002 6.28591C7.73372 6.28591 7.47832 6.3917 7.29002 6.58V6.54Z" fill="#F6F8FB"/>
</svg>
