<svg width="15" height="10" viewBox="0 0 15 10" fill="none" xmlns="http://www.w3.org/2000/svg">
<path d="M13.6667 1.22671C13.4169 0.978378 13.0789 0.838989 12.7267 0.838989C12.3744 0.838989 12.0365 0.978378 11.7867 1.22671L7.00001 5.94671L2.28001 1.22671C2.0302 0.978378 1.69226 0.838989 1.34001 0.838989C0.987765 0.838989 0.64983 0.978378 0.400013 1.22671C0.275042 1.35066 0.175849 1.49813 0.108157 1.66061C0.0404659 1.82309 0.00561523 1.99736 0.00561523 2.17338C0.00561523 2.3494 0.0404659 2.52367 0.108157 2.68615C0.175849 2.84863 0.275042 2.9961 0.400013 3.12005L6.05335 8.77338C6.1773 8.89835 6.32476 8.99754 6.48724 9.06523C6.64972 9.13293 6.824 9.16778 7.00001 9.16778C7.17603 9.16778 7.3503 9.13293 7.51278 9.06523C7.67526 8.99754 7.82273 8.89835 7.94668 8.77338L13.6667 3.12005C13.7916 2.9961 13.8908 2.84863 13.9585 2.68615C14.0262 2.52367 14.0611 2.3494 14.0611 2.17338C14.0611 1.99736 14.0262 1.82309 13.9585 1.66061C13.8908 1.49813 13.7916 1.35066 13.6667 1.22671Z" fill="#F6F8FB"/>
</svg>
