<svg width="20" height="10" viewBox="0 0 20 10" fill="none" xmlns="http://www.w3.org/2000/svg">
<path d="M19.92 4.62C19.8724 4.49725 19.8011 4.3851 19.71 4.29L17.21 1.79C17.0217 1.6017 16.7663 1.49591 16.5 1.49591C16.2337 1.49591 15.9783 1.6017 15.79 1.79C15.6017 1.9783 15.4959 2.2337 15.4959 2.5C15.4959 2.7663 15.6017 3.0217 15.79 3.21L16.59 4H14C13.7348 4 13.4804 4.10536 13.2929 4.29289C13.1054 4.48043 13 4.73478 13 5C13 5.26522 13.1054 5.51957 13.2929 5.70711C13.4804 5.89464 13.7348 6 14 6H16.59L15.79 6.79C15.6963 6.88296 15.6219 6.99356 15.5711 7.11542C15.5204 7.23728 15.4942 7.36799 15.4942 7.5C15.4942 7.63201 15.5204 7.76272 15.5711 7.88458C15.6219 8.00644 15.6963 8.11704 15.79 8.21C15.883 8.30373 15.9936 8.37812 16.1154 8.42889C16.2373 8.47966 16.368 8.5058 16.5 8.5058C16.632 8.5058 16.7627 8.47966 16.8846 8.42889C17.0065 8.37812 17.1171 8.30373 17.21 8.21L19.71 5.71C19.8011 5.6149 19.8724 5.50275 19.92 5.38C20.02 5.13654 20.02 4.86346 19.92 4.62ZM6.00002 4H3.41002L4.21002 3.21C4.39832 3.0217 4.50411 2.7663 4.50411 2.5C4.50411 2.2337 4.39832 1.9783 4.21002 1.79C4.02172 1.6017 3.76632 1.49591 3.50002 1.49591C3.23372 1.49591 2.97832 1.6017 2.79002 1.79L0.290018 4.29C0.198978 4.3851 0.127613 4.49725 0.0800184 4.62C-0.0199996 4.86346 -0.0199996 5.13654 0.0800184 5.38C0.127613 5.50275 0.198978 5.6149 0.290018 5.71L2.79002 8.21C2.88298 8.30373 2.99358 8.37812 3.11544 8.42889C3.2373 8.47966 3.36801 8.5058 3.50002 8.5058C3.63203 8.5058 3.76274 8.47966 3.8846 8.42889C4.00645 8.37812 4.11706 8.30373 4.21002 8.21C4.30375 8.11704 4.37814 8.00644 4.42891 7.88458C4.47968 7.76272 4.50582 7.63201 4.50582 7.5C4.50582 7.36799 4.47968 7.23728 4.42891 7.11542C4.37814 6.99356 4.30375 6.88296 4.21002 6.79L3.41002 6H6.00002C6.26523 6 6.51959 5.89464 6.70713 5.70711C6.89466 5.51957 7.00002 5.26522 7.00002 5C7.00002 4.73478 6.89466 4.48043 6.70713 4.29289C6.51959 4.10536 6.26523 4 6.00002 4ZM10 0C9.7348 0 9.48045 0.105357 9.29291 0.292893C9.10538 0.48043 9.00002 0.734784 9.00002 1V9C9.00002 9.26522 9.10538 9.51957 9.29291 9.70711C9.48045 9.89464 9.7348 10 10 10C10.2652 10 10.5196 9.89464 10.7071 9.70711C10.8947 9.51957 11 9.26522 11 9V1C11 0.734784 10.8947 0.48043 10.7071 0.292893C10.5196 0.105357 10.2652 0 10 0Z" fill="#6F7480"/>
</svg>
