<svg width="15" height="22" viewBox="0 0 15 22" fill="none" xmlns="http://www.w3.org/2000/svg">
<path d="M13.83 8.44C13.7383 8.30429 13.6146 8.19319 13.4699 8.11647C13.3252 8.03975 13.1638 7.99975 13 8H10V6H12.2C12.4652 6 12.7196 5.89464 12.9071 5.70711C13.0946 5.51957 13.2 5.26522 13.2 5V1C13.2 0.734784 13.0946 0.48043 12.9071 0.292893C12.7196 0.105357 12.4652 0 12.2 0H9C7.46174 0 5.98649 0.61107 4.89878 1.69878C3.81107 2.78649 3.2 4.26174 3.2 5.8V8H1C0.734784 8 0.48043 8.10536 0.292893 8.29289C0.105357 8.48043 0 8.73478 0 9V13C0 13.2652 0.105357 13.5196 0.292893 13.7071C0.48043 13.8946 0.734784 14 1 14H3.2V21C3.2 21.2652 3.30536 21.5196 3.49289 21.7071C3.68043 21.8946 3.93478 22 4.2 22H9C9.26522 22 9.51957 21.8946 9.70711 21.7071C9.89464 21.5196 10 21.2652 10 21V14H11.4C11.6003 14.0002 11.796 13.9402 11.9618 13.8279C12.1276 13.7156 12.2559 13.5561 12.33 13.37L13.93 9.37C13.9904 9.21858 14.0129 9.05468 13.9954 8.89259C13.978 8.7305 13.9212 8.57512 13.83 8.44ZM10.72 12H9C8.73478 12 8.48043 12.1054 8.29289 12.2929C8.10536 12.4804 8 12.7348 8 13V20H5.2V13C5.2 12.7348 5.09464 12.4804 4.90711 12.2929C4.71957 12.1054 4.46522 12 4.2 12H2V10H4.2C4.46522 10 4.71957 9.89464 4.90711 9.70711C5.09464 9.51957 5.2 9.26522 5.2 9V5.8C5.20264 4.79299 5.60384 3.82798 6.31591 3.11591C7.02798 2.40384 7.99299 2.00264 9 2H11.2V4H10.4C10.0614 3.95067 9.71631 3.97137 9.38605 4.06082C9.0558 4.15026 8.74741 4.30655 8.48 4.52C8.31772 4.6899 8.19153 4.8909 8.10903 5.11089C8.02654 5.33087 7.98945 5.56529 8 5.8V9C8 9.26522 8.10536 9.51957 8.29289 9.70711C8.48043 9.89464 8.73478 10 9 10H11.52L10.72 12Z" fill="#F6F8FB"/>
</svg>
