<svg width="36" height="45" viewBox="0 0 36 45" fill="none" xmlns="http://www.w3.org/2000/svg">
<path d="M10.9356 14.789L10.9311 14.7927L10.9268 14.7968L10.9356 14.789ZM30.8438 14.416C30.7047 14.2819 30.5503 14.1645 30.3838 14.0663C30.1482 13.9277 29.8866 13.8388 29.6153 13.8052C29.3439 13.7717 29.0686 13.7941 28.8063 13.8712C28.544 13.9482 28.3002 14.0783 28.0902 14.2533C27.8801 14.4283 27.7082 14.6445 27.585 14.8886C26.8961 16.246 25.9459 17.454 24.789 18.4433C24.9659 17.4465 25.0551 16.4361 25.0556 15.4238C25.0593 12.344 24.2469 9.31819 22.7009 6.65449C21.155 3.9908 18.9308 1.78434 16.2548 0.259767C15.96 0.0926611 15.6276 0.00318612 15.2888 -0.000262593C14.95 -0.0037113 14.6158 0.0789793 14.3177 0.24005C14.0195 0.401121 13.7672 0.635291 13.5844 0.920588C13.4016 1.20588 13.2942 1.53295 13.2724 1.87111C13.1605 3.76746 12.6647 5.62134 11.8152 7.32044C10.9656 9.01954 9.77998 10.5285 8.33006 11.7558L7.86912 12.1308C6.35295 13.151 5.01091 14.4086 3.89452 15.8554C2.15915 18.0416 0.957012 20.6021 0.383435 23.3338C-0.190142 26.0655 -0.119379 28.8932 0.590113 31.5928C1.2996 34.2923 2.62831 36.7895 4.47086 38.8861C6.3134 40.9828 8.61912 42.6214 11.2051 43.6718C11.5088 43.7959 11.8383 43.8434 12.1646 43.81C12.4909 43.7766 12.804 43.6635 13.0762 43.4805C13.3484 43.2975 13.5715 43.0504 13.7256 42.7608C13.8797 42.4713 13.9603 42.1483 13.9601 41.8203C13.9586 41.6081 13.925 41.3974 13.8605 41.1953C13.413 39.5133 13.2842 37.7625 13.4806 36.0332C15.373 39.6026 18.4108 42.4319 22.1056 44.0664C22.5565 44.2681 23.0664 44.2953 23.5362 44.1425C26.4554 43.2004 29.0851 41.5274 31.1755 39.2826C33.266 37.0379 34.7477 34.2959 35.48 31.3171C36.2122 28.3384 36.1707 25.2219 35.3592 22.2638C34.5478 19.3057 32.9934 16.6042 30.8438 14.416ZM23.0342 40.0781C21.2909 39.1945 19.753 37.954 18.5206 36.437C17.2881 34.9201 16.3888 33.1608 15.8809 31.2734C15.7258 30.6379 15.6059 29.9944 15.5215 29.3457C15.4644 28.9326 15.2796 28.5477 14.993 28.2447C14.7064 27.9418 14.3322 27.7361 13.9229 27.6562C13.7968 27.6313 13.6686 27.6189 13.5401 27.6191C13.1885 27.619 12.8432 27.7115 12.5389 27.8875C12.2346 28.0634 11.982 28.3164 11.8067 28.6211C10.1472 31.4833 9.31266 34.7492 9.39552 38.0566C7.936 36.9219 6.71622 35.5087 5.80688 33.899C4.89753 32.2894 4.3167 30.5152 4.09806 28.6794C3.87942 26.8436 4.02731 24.9827 4.53317 23.2045C5.03902 21.4263 5.89277 19.7662 7.04494 18.3203C7.91977 17.184 8.97512 16.1989 10.1689 15.4043C10.2206 15.371 10.2702 15.3344 10.3174 15.2949C10.3174 15.2949 10.9108 14.804 10.931 14.7927C13.7804 12.3827 15.8071 9.14377 16.7285 5.52737C18.9077 7.54183 20.3607 10.2194 20.862 13.1444C21.3634 16.0693 20.8849 19.078 19.501 21.7031C19.3181 22.0534 19.2431 22.4501 19.2854 22.8429C19.3277 23.2358 19.4854 23.6074 19.7386 23.9107C19.9918 24.2141 20.3292 24.4356 20.7082 24.5475C21.0872 24.6593 21.4908 24.6564 21.8682 24.5391C24.9317 23.5788 27.6276 21.703 29.5928 19.1641C30.7739 20.9087 31.5461 22.8974 31.8518 24.9819C32.1575 27.0664 31.9889 29.193 31.3584 31.2032C30.728 33.2135 29.6521 35.0556 28.2108 36.5922C26.7695 38.1289 25 39.3204 23.0342 40.0781L23.0342 40.0781Z" fill="#F6F8FB"/>
</svg>
