<svg width="40" height="36" viewBox="0 0 40 36" fill="none" xmlns="http://www.w3.org/2000/svg">
<path d="M30 16H28C27.4696 16 26.9609 16.2107 26.5858 16.5858C26.2107 16.9609 26 17.4696 26 18C26 18.5304 26.2107 19.0391 26.5858 19.4142C26.9609 19.7893 27.4696 20 28 20H30C30.5304 20 31.0391 19.7893 31.4142 19.4142C31.7893 19.0391 32 18.5304 32 18C32 17.4696 31.7893 16.9609 31.4142 16.5858C31.0391 16.2107 30.5304 16 30 16ZM30 24H28C27.4696 24 26.9609 24.2107 26.5858 24.5858C26.2107 24.9609 26 25.4696 26 26C26 26.5304 26.2107 27.0391 26.5858 27.4142C26.9609 27.7893 27.4696 28 28 28H30C30.5304 28 31.0391 27.7893 31.4142 27.4142C31.7893 27.0391 32 26.5304 32 26C32 25.4696 31.7893 24.9609 31.4142 24.5858C31.0391 24.2107 30.5304 24 30 24ZM18 12H30C30.5304 12 31.0391 11.7893 31.4142 11.4142C31.7893 11.0391 32 10.5304 32 10C32 9.46957 31.7893 8.96086 31.4142 8.58579C31.0391 8.21071 30.5304 8 30 8H18C17.4696 8 16.9609 8.21071 16.5858 8.58579C16.2107 8.96086 16 9.46957 16 10C16 10.5304 16.2107 11.0391 16.5858 11.4142C16.9609 11.7893 17.4696 12 18 12V12ZM38 0H10C9.46957 0 8.96086 0.210714 8.58579 0.585786C8.21071 0.960859 8 1.46957 8 2V8H2C1.46957 8 0.960859 8.21071 0.585786 8.58579C0.210714 8.96086 0 9.46957 0 10V30C0 31.5913 0.632141 33.1174 1.75736 34.2426C2.88258 35.3679 4.4087 36 6 36H32C34.1217 36 36.1566 35.1571 37.6569 33.6569C39.1571 32.1566 40 30.1217 40 28V2C40 1.46957 39.7893 0.960859 39.4142 0.585786C39.0391 0.210714 38.5304 0 38 0V0ZM8 30C8 30.5304 7.78929 31.0391 7.41421 31.4142C7.03914 31.7893 6.53043 32 6 32C5.46957 32 4.96086 31.7893 4.58579 31.4142C4.21071 31.0391 4 30.5304 4 30V12H8V30ZM36 28C36 29.0609 35.5786 30.0783 34.8284 30.8284C34.0783 31.5786 33.0609 32 32 32H11.64C11.8728 31.3587 11.9946 30.6823 12 30V4H36V28ZM18 20H20C20.5304 20 21.0391 19.7893 21.4142 19.4142C21.7893 19.0391 22 18.5304 22 18C22 17.4696 21.7893 16.9609 21.4142 16.5858C21.0391 16.2107 20.5304 16 20 16H18C17.4696 16 16.9609 16.2107 16.5858 16.5858C16.2107 16.9609 16 17.4696 16 18C16 18.5304 16.2107 19.0391 16.5858 19.4142C16.9609 19.7893 17.4696 20 18 20V20ZM18 28H20C20.5304 28 21.0391 27.7893 21.4142 27.4142C21.7893 27.0391 22 26.5304 22 26C22 25.4696 21.7893 24.9609 21.4142 24.5858C21.0391 24.2107 20.5304 24 20 24H18C17.4696 24 16.9609 24.2107 16.5858 24.5858C16.2107 24.9609 16 25.4696 16 26C16 26.5304 16.2107 27.0391 16.5858 27.4142C16.9609 27.7893 17.4696 28 18 28V28Z" fill="#1F2229"/>
</svg>
