<svg width="24" height="24" viewBox="0 0 24 24" fill="none" xmlns="http://www.w3.org/2000/svg">
<path d="M8 7C6.34146 7 5 8.34146 5 10C5 11.6585 6.34146 13 8 13C9.65854 13 11 11.6585 11 10C11 8.34146 9.65854 7 8 7ZM7.70732 10.939C7.03659 10.939 6.4878 10.3902 6.4878 9.71951C6.4878 9.04878 7.03659 8.5 7.70732 8.5C8.37805 8.5 8.92683 9.04878 8.92683 9.71951C8.92683 10.3902 8.37805 10.939 7.70732 10.939Z" fill="#F6F8FB"/>
<path d="M17.1636 8.16732C17.1636 7.52263 16.64 7 15.9941 7C15.3481 7 14.8245 7.52263 14.8245 8.16732C14.8245 8.81201 15.3481 9.33464 15.9941 9.33464C16.64 9.33464 17.1636 8.81201 17.1636 8.16732Z" fill="#F6F8FB"/>
<path d="M17.1636 11.8324C17.1636 11.1877 16.64 10.665 15.9941 10.665C15.3481 10.665 14.8245 11.1877 14.8245 11.8324C14.8245 12.4771 15.3481 12.9997 15.9941 12.9997C16.64 12.9997 17.1636 12.4771 17.1636 11.8324Z" fill="#F6F8FB"/>
<path d="M17.8305 11.1667C18.4765 11.1667 19.0001 10.644 19.0001 9.99935C19.0001 9.35466 18.4765 8.83203 17.8305 8.83203C17.1846 8.83203 16.6609 9.35466 16.6609 9.99935C16.6609 10.644 17.1846 11.1667 17.8305 11.1667Z" fill="#F6F8FB"/>
<path d="M14.1695 11.1667C14.8155 11.1667 15.3391 10.644 15.3391 9.99935C15.3391 9.35466 14.8155 8.83203 14.1695 8.83203C13.5236 8.83203 12.9999 9.35466 12.9999 9.99935C12.9999 10.644 13.5236 11.1667 14.1695 11.1667Z" fill="#F6F8FB"/>
<path fill-rule="evenodd" clip-rule="evenodd" d="M21.777 7.97288L22.9496 16.0568C22.9498 16.0585 22.9501 16.0602 22.9503 16.0619C23.2075 17.7996 22.4439 19.383 21.1749 20.2676C19.8779 21.1718 18.0325 21.3325 16.5035 20.2046L16.4563 20.1697L15.603 19.4655L15.5971 19.4606C14.556 18.5889 13.2952 18.1459 12.0249 18.161L11.9991 18.1613L11.9734 18.161C10.703 18.1459 9.44228 18.5889 8.40118 19.4606L8.39529 19.4655L7.54199 20.1697L7.49472 20.2046C5.97149 21.3282 4.12955 21.1787 2.82796 20.2723C1.55458 19.3856 0.799102 17.8021 1.04684 16.0696L1.04745 16.0653L2.22124 7.97288C2.69153 4.73269 5.75887 2.25862 9.14316 3.21005L9.1501 3.212C10.0685 3.47348 11.009 3.59529 11.9593 3.57786L11.9991 3.57713L12.0389 3.57786C12.9887 3.59528 13.9287 3.47363 14.8466 3.21246C18.2477 2.23896 21.3087 4.74624 21.777 7.97288ZM15.4422 5.28041C17.379 4.72526 19.3255 6.12382 19.6385 8.28038L20.8123 16.3728C21.0862 18.2091 19.2081 19.5223 17.7898 18.476L16.9877 17.8141C15.5596 16.6184 13.7989 15.9885 11.9991 16.0098C10.1993 15.9885 8.43865 16.6184 7.01054 17.8141L6.20846 18.476C4.79013 19.5223 2.92186 18.2198 3.18596 16.3728L4.35975 8.28038C4.67275 6.12382 6.61928 4.73593 8.55603 5.28041C9.6809 5.60069 10.8351 5.75016 11.9991 5.72881C13.1631 5.75016 14.3174 5.60069 15.4422 5.28041Z" fill="#F6F8FB"/>
</svg>