<svg width="24" height="25" viewBox="0 0 18 19" fill="none" xmlns="http://www.w3.org/2000/svg">
<path d="M12.7699 2.87C12.9995 3.00037 13.2714 3.03464 13.5262 2.96532C13.7809 2.896 13.998 2.72873 14.1299 2.5C14.2391 2.30736 14.4091 2.15639 14.6133 2.07078C14.8175 1.98517 15.0443 1.96975 15.2582 2.02694C15.4721 2.08414 15.661 2.21071 15.7952 2.38681C15.9295 2.56291 16.0014 2.77858 15.9999 3C15.9999 3.26522 15.8945 3.51957 15.707 3.70711C15.5195 3.89464 15.2651 4 14.9999 4C14.7347 4 14.4803 4.10536 14.2928 4.29289C14.1053 4.48043 13.9999 4.73478 13.9999 5C13.9999 5.26522 14.1053 5.51957 14.2928 5.70711C14.4803 5.89464 14.7347 6 14.9999 6C15.5264 5.99966 16.0436 5.86075 16.4994 5.59723C16.9553 5.33371 17.3337 4.95486 17.5968 4.49875C17.8598 4.04264 17.9982 3.52533 17.998 2.9988C17.9978 2.47227 17.859 1.95507 17.5956 1.49917C17.3322 1.04326 16.9534 0.664718 16.4973 0.401563C16.0413 0.138409 15.524 -8.42941e-05 14.9975 3.84915e-08C14.471 8.43711e-05 13.9537 0.138743 13.4978 0.402044C13.0418 0.665344 12.6632 1.04401 12.3999 1.5C12.3338 1.61413 12.2909 1.74022 12.2737 1.871C12.2565 2.00178 12.2654 2.13466 12.2998 2.262C12.3342 2.38934 12.3934 2.50862 12.4741 2.61297C12.5548 2.71732 12.6553 2.80467 12.7699 2.87ZM17.0699 10C16.8074 9.96593 16.5421 10.0373 16.3322 10.1985C16.1222 10.3597 15.9848 10.5976 15.9499 10.86C15.74 12.5552 14.9176 14.1151 13.6375 15.246C12.3574 16.3769 10.708 17.0007 8.9999 17H3.4099L4.0599 16.35C4.24615 16.1626 4.35069 15.9092 4.35069 15.645C4.35069 15.3808 4.24615 15.1274 4.0599 14.94C3.08484 13.9611 2.42128 12.7156 2.15279 11.3603C1.8843 10.005 2.02288 8.60052 2.55109 7.32383C3.07931 6.04714 3.97351 4.95532 5.12108 4.18589C6.26865 3.41646 7.61826 3.00384 8.9999 3C9.26511 3 9.51947 2.89464 9.707 2.70711C9.89454 2.51957 9.9999 2.26522 9.9999 2C9.9999 1.73478 9.89454 1.48043 9.707 1.29289C9.51947 1.10536 9.26511 0.999999 8.9999 0.999999C7.30913 1.00705 5.65454 1.49024 4.22569 2.39419C2.79684 3.29815 1.65153 4.58632 0.92096 6.11112C0.190391 7.63592 -0.0958806 9.33568 0.094941 11.0157C0.285763 12.6956 0.945959 14.2879 1.9999 15.61L0.289895 17.29C0.151138 17.4306 0.0571415 17.6092 0.0197673 17.8032C-0.0176068 17.9972 0.00331588 18.1979 0.0798953 18.38C0.154915 18.5626 0.282313 18.7189 0.446034 18.8293C0.609754 18.9396 0.80247 18.999 0.999895 19H8.9999C11.1913 19.0003 13.3076 18.201 14.9517 16.7521C16.5958 15.3031 17.6547 13.3041 17.9299 11.13C17.9482 10.9993 17.9404 10.8662 17.907 10.7385C17.8736 10.6107 17.8152 10.4909 17.7353 10.3858C17.6553 10.2808 17.5554 10.1926 17.4412 10.1264C17.327 10.0602 17.2008 10.0172 17.0699 10ZM15.3799 7.07C15.1978 6.98945 14.9959 6.96508 14.7999 7L14.6199 7.06L14.4399 7.15L14.2899 7.28C14.1999 7.37215 14.1286 7.48081 14.0799 7.6C14.0208 7.72473 13.9933 7.86212 13.9999 8C13.997 8.13337 14.0208 8.26597 14.0699 8.39C14.1216 8.51002 14.1964 8.61873 14.2899 8.71C14.3833 8.80268 14.4942 8.87601 14.616 8.92577C14.7378 8.97553 14.8683 9.00076 14.9999 9C15.2651 9 15.5195 8.89464 15.707 8.70711C15.8945 8.51957 15.9999 8.26522 15.9999 8C16.0033 7.86882 15.9759 7.73868 15.9199 7.62C15.8124 7.37971 15.6202 7.18745 15.3799 7.08V7.07Z" fill="#E6E8ED"/>
</svg>
