<svg width="22" height="22" viewBox="0 0 22 22" fill="none" xmlns="http://www.w3.org/2000/svg">
<path d="M20.17 1.06012C19.4532 0.936655 18.7273 0.873102 18 0.870122C15.5183 0.868087 13.0884 1.57969 11 2.92012C8.90611 1.59729 6.47661 0.903152 3.99996 0.920121C3.27261 0.923102 2.54677 0.986655 1.82996 1.11012C1.59517 1.1506 1.38254 1.27358 1.23038 1.45691C1.07821 1.64025 0.996499 1.87189 0.999963 2.11012V14.1101C0.997821 14.2571 1.02809 14.4027 1.08861 14.5366C1.14914 14.6705 1.23843 14.7894 1.35014 14.8849C1.46184 14.9803 1.59322 15.05 1.73492 15.089C1.87662 15.1279 2.02515 15.1351 2.16996 15.1101C3.60298 14.862 5.07116 14.9032 6.48803 15.2312C7.90489 15.5592 9.24179 16.1675 10.42 17.0201L10.54 17.0901H10.65C10.7609 17.1363 10.8798 17.1601 11 17.1601C11.1201 17.1601 11.2391 17.1363 11.35 17.0901H11.46L11.58 17.0201C12.7499 16.1484 14.083 15.5205 15.5001 15.1735C16.9172 14.8265 18.3896 14.7675 19.83 15.0001C19.9748 15.0251 20.1233 15.0179 20.265 14.979C20.4067 14.94 20.5381 14.8703 20.6498 14.7749C20.7615 14.6794 20.8508 14.5605 20.9113 14.4266C20.9718 14.2927 21.0021 14.1471 21 14.0001V2.00012C20.9896 1.77228 20.9016 1.55483 20.7506 1.38386C20.5996 1.21289 20.3948 1.09866 20.17 1.06012ZM9.99996 14.3501C8.14985 13.3768 6.09048 12.8688 3.99996 12.8701C3.66996 12.8701 3.33996 12.8701 2.99996 12.8701V2.87012C3.33302 2.85093 3.66691 2.85093 3.99996 2.87012C6.13335 2.86776 8.22018 3.49381 9.99996 4.67012V14.3501ZM19 12.9101C18.66 12.9101 18.33 12.9101 18 12.9101C15.9094 12.9088 13.8501 13.4168 12 14.3901V4.67012C13.7797 3.49381 15.8666 2.86776 18 2.87012C18.333 2.85093 18.6669 2.85093 19 2.87012V12.9101ZM20.17 17.0601C19.4532 16.9367 18.7273 16.8731 18 16.8701C15.5183 16.8681 13.0884 17.5797 11 18.9201C8.91148 17.5797 6.4816 16.8681 3.99996 16.8701C3.27261 16.8731 2.54677 16.9367 1.82996 17.0601C1.69979 17.0808 1.57499 17.127 1.46272 17.196C1.35046 17.2651 1.25296 17.3557 1.17583 17.4625C1.09869 17.5694 1.04345 17.6905 1.01327 17.8188C0.983085 17.9471 0.978563 18.0801 0.999963 18.2101C1.05078 18.4698 1.20245 18.6988 1.42175 18.8468C1.64105 18.9949 1.9101 19.05 2.16996 19.0001C3.60298 18.752 5.07116 18.7932 6.48803 19.1212C7.90489 19.4492 9.24179 20.0575 10.42 20.9101C10.5893 21.0307 10.7921 21.0955 11 21.0955C11.2079 21.0955 11.4106 21.0307 11.58 20.9101C12.7581 20.0575 14.095 19.4492 15.5119 19.1212C16.9288 18.7932 18.3969 18.752 19.83 19.0001C20.0898 19.05 20.3589 18.9949 20.5782 18.8468C20.7975 18.6988 20.9491 18.4698 21 18.2101C21.0214 18.0801 21.0168 17.9471 20.9867 17.8188C20.9565 17.6905 20.9012 17.5694 20.8241 17.4625C20.747 17.3557 20.6495 17.2651 20.5372 17.196C20.4249 17.127 20.3001 17.0808 20.17 17.0601Z" fill="#F6F8FB"/>
</svg>
