<svg width="20" height="22" viewBox="0 0 20 22" fill="none" xmlns="http://www.w3.org/2000/svg">
<path d="M18.4371 6.10449C18.2644 5.91091 18.0725 5.7354 17.8643 5.58069C17.9498 4.91079 17.8907 4.23035 17.691 3.58522C17.4913 2.9401 17.1556 2.34527 16.7066 1.84082C15.6227 0.61914 13.775 0 11.2145 0H5.00059C4.55167 0.00119633 4.1178 0.161949 3.77647 0.453542C3.43515 0.745136 3.20861 1.14858 3.13731 1.5918L0.54746 17.9981C0.51082 18.218 0.522578 18.4432 0.581914 18.6581C0.641251 18.873 0.746738 19.0724 0.891025 19.2423C1.03531 19.4123 1.21492 19.5487 1.41735 19.6421C1.61977 19.7355 1.84012 19.7837 2.06306 19.7832H4.72715L4.64515 20.3037C4.61199 20.5131 4.62461 20.7272 4.68213 20.9312C4.73965 21.1352 4.84072 21.3244 4.97836 21.4856C5.116 21.6468 5.28695 21.7763 5.47944 21.8651C5.67193 21.9539 5.88138 21.9999 6.09336 22H9.32774C9.74672 22.0033 10.1532 21.8572 10.4741 21.5878C10.795 21.3185 11.0094 20.9435 11.0787 20.5303L11.7194 16.499L11.7301 16.4443H12.0289C16.0612 16.4443 18.5797 14.4512 19.3141 10.6816C19.5381 9.90348 19.5755 9.08346 19.4231 8.28817C19.2707 7.49287 18.9329 6.74472 18.4371 6.10449ZM5.84239 12.7041L5.12791 17.2394L5.0416 17.7832H2.60606L5.09727 2H11.2145C13.15 2 14.5318 2.4043 15.2066 3.16406C15.5252 3.53441 15.7473 3.97767 15.8534 4.4545C15.9594 4.93133 15.9461 5.42696 15.8145 5.8974L15.7959 6.00964C15.7838 6.08612 15.7727 6.16083 15.7525 6.25586C15.5597 7.68478 14.8456 8.99202 13.7474 9.92639C12.5146 10.7837 11.0288 11.2005 9.52989 11.1094H7.70664C7.25642 11.1079 6.82062 11.268 6.47849 11.5607C6.13636 11.8533 5.91065 12.2591 5.84239 12.7041ZM17.3512 10.2988C16.8004 13.127 15.109 14.4443 12.0289 14.4443H11.5455C11.1261 14.4411 10.7193 14.5876 10.3983 14.8576C10.0773 15.1276 9.86319 15.5032 9.79451 15.917L9.1451 19.9912L6.71739 20L7.19554 16.9661L7.80668 13.1133H9.52598C9.68278 13.1133 9.82139 13.0897 9.9741 13.0843C10.3329 13.072 10.6907 13.0582 11.0268 13.0165C11.232 12.9909 11.4204 12.9443 11.6171 12.9078C11.8896 12.8574 12.1623 12.8076 12.4182 12.7365C12.6086 12.6835 12.7862 12.6153 12.9673 12.5509C13.2065 12.466 13.4421 12.3769 13.6648 12.2722C13.8328 12.1931 13.9929 12.1052 14.1514 12.0149C14.3624 11.8954 14.5668 11.7647 14.7638 11.6232C14.906 11.5206 15.0457 11.4153 15.1788 11.3022C15.3674 11.1396 15.5467 10.9663 15.7157 10.7833C15.8287 10.6628 15.9444 10.5458 16.049 10.4161C16.2226 10.1949 16.3829 9.96362 16.529 9.72343C16.6055 9.60124 16.6903 9.4882 16.7606 9.3596C16.9632 8.98894 17.1373 8.6034 17.2814 8.20634C17.2901 8.18248 17.3025 8.16234 17.3109 8.13834C17.3149 8.12711 17.3208 8.11777 17.3248 8.10648C17.5229 8.8227 17.532 9.57805 17.3512 10.2988Z" fill="#F6F8FB"/>
</svg>
