<svg width="28" height="28" viewBox="0 0 28 28" fill="none" xmlns="http://www.w3.org/2000/svg">
<path d="M13.9998 0.666626C11.3628 0.666626 8.7849 1.44861 6.59224 2.9137C4.39958 4.37878 2.69062 6.46117 1.68145 8.89751C0.672281 11.3339 0.408237 14.0148 0.922706 16.6012C1.43718 19.1876 2.70705 21.5634 4.57175 23.4281C6.43645 25.2928 8.81223 26.5626 11.3986 27.0771C13.9851 27.5916 16.6659 27.3275 19.1023 26.3184C21.5386 25.3092 23.621 23.6002 25.0861 21.4076C26.5512 19.2149 27.3332 16.637 27.3332 14C27.3332 12.249 26.9883 10.5152 26.3182 8.89751C25.6482 7.27984 24.666 5.80998 23.4279 4.57187C22.1898 3.33375 20.72 2.35163 19.1023 1.68157C17.4846 1.0115 15.7508 0.666626 13.9998 0.666626V0.666626ZM13.9998 24.6666C11.8902 24.6666 9.82788 24.041 8.07376 22.869C6.31964 21.6969 4.95246 20.031 4.14513 18.0819C3.33779 16.1328 3.12656 13.9881 3.53813 11.919C3.94971 9.84987 4.96561 7.94925 6.45737 6.45749C7.94913 4.96573 9.84975 3.94983 11.9189 3.53825C13.988 3.12667 16.1327 3.33791 18.0818 4.14524C20.0309 4.95258 21.6968 6.31975 22.8689 8.07388C24.0409 9.828 24.6665 11.8903 24.6665 14C24.6665 16.8289 23.5427 19.542 21.5423 21.5424C19.5419 23.5428 16.8288 24.6666 13.9998 24.6666V24.6666ZM19.3332 12.6666H15.3332V8.66663C15.3332 8.313 15.1927 7.97387 14.9427 7.72382C14.6926 7.47377 14.3535 7.33329 13.9998 7.33329C13.6462 7.33329 13.3071 7.47377 13.057 7.72382C12.807 7.97387 12.6665 8.313 12.6665 8.66663V12.6666H8.66651C8.31289 12.6666 7.97375 12.8071 7.7237 13.0572C7.47365 13.3072 7.33318 13.6463 7.33318 14C7.33318 14.3536 7.47365 14.6927 7.7237 14.9428C7.97375 15.1928 8.31289 15.3333 8.66651 15.3333H12.6665V19.3333C12.6665 19.6869 12.807 20.0261 13.057 20.2761C13.3071 20.5262 13.6462 20.6666 13.9998 20.6666C14.3535 20.6666 14.6926 20.5262 14.9427 20.2761C15.1927 20.0261 15.3332 19.6869 15.3332 19.3333V15.3333H19.3332C19.6868 15.3333 20.0259 15.1928 20.276 14.9428C20.526 14.6927 20.6665 14.3536 20.6665 14C20.6665 13.6463 20.526 13.3072 20.276 13.0572C20.0259 12.8071 19.6868 12.6666 19.3332 12.6666Z" fill="#F6F8FB"/>
</svg>
