<svg width="21" height="21" viewBox="0 0 21 21" fill="none" xmlns="http://www.w3.org/2000/svg">
<path d="M5.9917 12.502C5.86037 12.5019 5.73032 12.5278 5.60898 12.578C5.48764 12.6283 5.37739 12.7019 5.28452 12.7948C5.19166 12.8876 5.118 12.9979 5.06776 13.1192C5.01751 13.2406 4.99167 13.3706 4.9917 13.502V15.2843C3.70275 13.8266 2.99141 11.9478 2.9917 10.002C2.99152 9.70788 3.00913 9.41405 3.04443 9.12209C3.06062 8.99153 3.05089 8.85905 3.01579 8.73226C2.98069 8.60547 2.92092 8.48685 2.83989 8.3832C2.75887 8.27956 2.65818 8.19292 2.54361 8.12825C2.42904 8.06358 2.30284 8.02216 2.17223 8.00636C2.04162 7.99055 1.90918 8.00068 1.78249 8.03615C1.65581 8.07163 1.53736 8.13175 1.43396 8.21308C1.33055 8.29442 1.24421 8.39535 1.17988 8.51011C1.11555 8.62488 1.0745 8.7512 1.05908 8.88186C1.01379 9.2535 0.991286 9.62757 0.991705 10.002C0.993064 12.3881 1.85066 14.6946 3.40857 16.502H1.9917C1.72649 16.502 1.47213 16.6073 1.2846 16.7949C1.09706 16.9824 0.991705 17.2367 0.991705 17.502C0.991705 17.7672 1.09706 18.0215 1.2846 18.2091C1.47213 18.3966 1.72649 18.502 1.9917 18.502H5.9917C6.1481 18.5 6.30177 18.4607 6.4399 18.3873C6.57804 18.314 6.69664 18.2086 6.78583 18.0802C6.79749 18.0648 6.81238 18.0534 6.82324 18.0372C6.8299 18.0272 6.83008 18.0154 6.8363 18.0053C6.88396 17.9248 6.91967 17.8378 6.9423 17.747C6.95711 17.696 6.96762 17.6439 6.97373 17.5911C6.9766 17.5602 6.99173 17.5336 6.99173 17.502V13.502C6.99177 13.3707 6.96593 13.2406 6.91569 13.1193C6.86545 12.9979 6.79179 12.8877 6.69892 12.7948C6.60605 12.7019 6.49579 12.6283 6.37444 12.578C6.2531 12.5278 6.12304 12.5019 5.9917 12.502ZM7.4917 4.00197H5.70923C7.16704 2.71307 9.04583 2.00174 10.9917 2.00197C11.2856 2.00126 11.5793 2.01887 11.8711 2.05471C12.0015 2.07054 12.1338 2.06054 12.2603 2.02526C12.3869 1.98998 12.5053 1.93012 12.6087 1.8491C12.7121 1.76807 12.7986 1.66747 12.8631 1.55303C12.9277 1.4386 12.969 1.31257 12.9849 1.18215C13.0007 1.05172 12.9907 0.919455 12.9554 0.792898C12.9201 0.66634 12.8603 0.547971 12.7793 0.444548C12.6982 0.341125 12.5976 0.254673 12.4832 0.19013C12.3688 0.125586 12.2427 0.0842139 12.1123 0.0683759C11.7405 0.0235169 11.3662 0.00133933 10.9917 0.00196604C8.60557 0.00326316 6.29912 0.860797 4.49171 2.41866V1.00197C4.49171 0.73675 4.38635 0.482396 4.19881 0.294859C4.01128 0.107323 3.75692 0.00196604 3.49171 0.00196604C3.22649 0.00196604 2.97213 0.107323 2.7846 0.294859C2.59706 0.482396 2.4917 0.73675 2.4917 1.00197V5.00197C2.49799 5.06806 2.51117 5.13332 2.53101 5.19668L2.53125 5.1979C2.55554 5.32095 2.60348 5.43812 2.67242 5.5429L2.68384 5.5598C2.74992 5.6559 2.83274 5.73934 2.92834 5.80614C2.93927 5.81414 2.9447 5.8264 2.95605 5.83403C2.97034 5.84349 2.98652 5.84649 3.00111 5.85515C3.05782 5.88926 3.11791 5.91741 3.18042 5.93915C3.26491 5.96854 3.35299 5.98632 3.44226 5.992C3.45959 5.99292 3.47419 6.002 3.49171 6.002H7.4917C7.75692 6.002 8.01128 5.89664 8.19881 5.7091C8.38635 5.52157 8.4917 5.26721 8.4917 5.002C8.4917 4.73678 8.38635 4.48243 8.19881 4.29489C8.01128 4.10735 7.75692 4.002 7.4917 4.002V4.00197ZM19.4522 14.8061C19.4279 14.683 19.3799 14.5657 19.3109 14.461L19.2996 14.4442C19.2335 14.348 19.1506 14.2645 19.0549 14.1977C19.044 14.1898 19.0386 14.1775 19.0273 14.1699C19.0165 14.1627 19.0037 14.1625 18.9927 14.1558C18.8659 14.0853 18.7269 14.0393 18.583 14.0204C18.5514 14.0174 18.5241 14.0019 18.4917 14.0019H14.4917C14.2265 14.0019 13.9721 14.1073 13.7846 14.2948C13.5971 14.4823 13.4917 14.7367 13.4917 15.0019C13.4917 15.2671 13.5971 15.5215 13.7846 15.709C13.9721 15.8966 14.2265 16.0019 14.4917 16.0019H16.2741C14.8163 17.2908 12.9376 18.0022 10.9917 18.0019C10.6977 18.0023 10.404 17.9844 10.1123 17.9482C9.8489 17.9162 9.58358 17.9902 9.37471 18.1538C9.16583 18.3175 9.03052 18.5574 8.99854 18.8208C8.96655 19.0842 9.04051 19.3495 9.20415 19.5584C9.36778 19.7672 9.60769 19.9025 9.87109 19.9345C10.2429 19.9794 10.6172 20.0019 10.9917 20.0019C13.3778 20.0006 15.6843 19.1431 17.4917 17.5852V19.002C17.4917 19.2672 17.5971 19.5215 17.7846 19.7091C17.9721 19.8966 18.2265 20.002 18.4917 20.002C18.7569 20.002 19.0113 19.8966 19.1988 19.7091C19.3863 19.5215 19.4917 19.2672 19.4917 19.002V15.002C19.4854 14.9359 19.4722 14.8706 19.4524 14.8073L19.4522 14.8061ZM19.9917 3.50197C20.2569 3.50197 20.5113 3.39661 20.6988 3.20907C20.8863 3.02154 20.9917 2.76718 20.9917 2.50197C20.9917 2.23675 20.8863 1.9824 20.6988 1.79486C20.5113 1.60732 20.2569 1.50197 19.9917 1.50197H15.9917C15.9266 1.50824 15.8623 1.52121 15.7999 1.54067L15.7932 1.54201C15.6718 1.5663 15.5561 1.61367 15.4525 1.68154L15.4329 1.69478C15.3373 1.76075 15.2542 1.84331 15.1876 1.93856C15.1798 1.94936 15.1676 1.95467 15.1602 1.96584C15.153 1.97658 15.1528 1.98928 15.1461 2.0002C15.0747 2.12779 15.0284 2.26786 15.0097 2.41286C15.0068 2.44375 14.9917 2.47036 14.9917 2.50197V6.50197C14.9917 6.76718 15.0971 7.02154 15.2846 7.20907C15.4721 7.39661 15.7265 7.50197 15.9917 7.50197C16.2569 7.50197 16.5113 7.39661 16.6988 7.20907C16.8863 7.02154 16.9917 6.76718 16.9917 6.50197V4.71909C18.2806 6.17706 18.9919 8.05594 18.9917 10.0019C18.9919 10.296 18.9743 10.5898 18.939 10.8818C18.9073 11.145 18.9813 11.4101 19.1448 11.6188C19.3083 11.8275 19.5479 11.9628 19.811 11.9951C19.8516 11.9998 19.8923 12.0021 19.9331 12.0019C20.1773 12.0016 20.4129 11.9119 20.5955 11.7498C20.7781 11.5878 20.8951 11.3644 20.9243 11.122C20.9696 10.7504 20.9921 10.3763 20.9917 10.002C20.9903 7.61578 20.1327 5.30933 18.5747 3.50197H19.9917Z" fill="#F6F8FB"/>
</svg>
