<svg width="21" height="21" viewBox="0 0 21 21" fill="none" xmlns="http://www.w3.org/2000/svg">
<path d="M19.71 13.5799L15.19 9.06988C15.2846 8.60926 15.3315 8.14012 15.33 7.66988C15.3296 6.38054 15.0042 5.11208 14.3839 3.98177C13.7636 2.85145 12.8683 1.89576 11.7809 1.20303C10.6934 0.51029 9.44888 0.102869 8.1623 0.0184232C6.87572 -0.066023 5.58862 0.17523 4.41995 0.719883C4.27189 0.787521 4.14258 0.890282 4.04324 1.01924C3.94391 1.1482 3.87756 1.29946 3.84995 1.45988C3.82246 1.61827 3.83355 1.78095 3.88229 1.93414C3.93103 2.08733 4.01599 2.22651 4.12995 2.33988L8.47995 6.67988L6.67995 8.47988L2.33995 4.12988C2.22562 4.01769 2.08601 3.9346 1.93287 3.88761C1.77972 3.84062 1.61754 3.83112 1.45995 3.85988C1.30053 3.88648 1.14994 3.95132 1.02106 4.04885C0.892182 4.14638 0.788863 4.27369 0.719953 4.41988C0.173478 5.59239 -0.0675654 6.88406 0.019245 8.17475C0.106055 9.46543 0.5179 10.7132 1.21647 11.802C1.91503 12.8907 2.87762 13.7851 4.0147 14.4019C5.15177 15.0188 6.42638 15.338 7.71995 15.3299C8.19019 15.3314 8.65933 15.2845 9.11995 15.1899L13.63 19.7099C13.7229 19.8036 13.8335 19.878 13.9554 19.9288C14.0772 19.9795 14.2079 20.0057 14.34 20.0057C14.472 20.0057 14.6027 19.9795 14.7245 19.9288C14.8464 19.878 14.957 19.8036 15.05 19.7099C15.1437 19.6169 15.2181 19.5063 15.2688 19.3845C15.3196 19.2626 15.3458 19.1319 15.3458 18.9999C15.3458 18.8679 15.3196 18.7372 15.2688 18.6153C15.2181 18.4934 15.1437 18.3828 15.05 18.2899L10.15 13.3899C10.0275 13.2682 9.87566 13.1804 9.70918 13.1348C9.54271 13.0893 9.36728 13.0876 9.19995 13.1299C8.71713 13.2592 8.21978 13.3264 7.71995 13.3299C6.972 13.3365 6.23014 13.195 5.53709 12.9137C4.84405 12.6323 4.21353 12.2166 3.68184 11.6905C3.15016 11.1644 2.72783 10.5383 2.43917 9.84823C2.15052 9.1582 2.00124 8.41786 1.99995 7.66988C1.99866 7.3349 2.02542 7.0004 2.07995 6.66988L5.99995 10.5999C6.09292 10.6936 6.20352 10.768 6.32538 10.8188C6.44724 10.8695 6.57794 10.8957 6.70995 10.8957C6.84197 10.8957 6.97267 10.8695 7.09453 10.8188C7.21639 10.768 7.32699 10.6936 7.41995 10.5999L10.6 7.38988C10.7802 7.20342 10.8809 6.95422 10.8809 6.69488C10.8809 6.43554 10.7802 6.18635 10.6 5.99988L6.70995 2.07988C7.04054 2.0259 7.37499 1.99914 7.70995 1.99988C9.212 2.00253 10.6516 2.60108 11.7128 3.66412C12.774 4.72716 13.37 6.16784 13.37 7.66988C13.3665 8.16971 13.2993 8.66706 13.17 9.14988C13.1276 9.31721 13.1293 9.49264 13.1749 9.65911C13.2204 9.82559 13.3083 9.97743 13.43 10.0999L18.33 14.9999C18.5183 15.1882 18.7737 15.294 19.04 15.294C19.3063 15.294 19.5616 15.1882 19.75 14.9999C19.9383 14.8116 20.044 14.5562 20.044 14.2899C20.044 14.0236 19.9383 13.7682 19.75 13.5799H19.71Z" fill="#F6F8FB"/>
</svg>
