<svg width="20" height="20" viewBox="0 0 20 20" fill="none" xmlns="http://www.w3.org/2000/svg">
<path d="M19.07 14.8299L17 12.7099C16.5547 12.2867 15.9931 12.0063 15.3872 11.9047C14.7813 11.8031 14.1589 11.885 13.6 12.1399L12.7 11.2399C13.7605 9.82286 14.2449 8.05662 14.0555 6.29678C13.8662 4.53694 13.0172 2.91417 11.6794 1.75514C10.3417 0.596117 8.61452 -0.0131016 6.84565 0.0501259C5.07678 0.113353 3.39754 0.844332 2.14596 2.09591C0.894381 3.34749 0.163402 5.02674 0.100175 6.79561C0.0369472 8.56448 0.646165 10.2916 1.80519 11.6294C2.96421 12.9671 4.58699 13.8161 6.34683 14.0055C8.10667 14.1948 9.87291 13.7105 11.29 12.6499L12.18 13.5399C11.8951 14.0996 11.793 14.7345 11.8881 15.3553C11.9831 15.976 12.2706 16.5513 12.71 16.9999L14.83 19.1199C15.3925 19.6817 16.155 19.9973 16.95 19.9973C17.745 19.9973 18.5075 19.6817 19.07 19.1199C19.3557 18.8405 19.5828 18.5069 19.7378 18.1385C19.8928 17.7702 19.9726 17.3746 19.9726 16.9749C19.9726 16.5753 19.8928 16.1797 19.7378 15.8114C19.5828 15.443 19.3557 15.1093 19.07 14.8299ZM10.59 10.5899C9.89023 11.2879 8.99929 11.7629 8.02973 11.9548C7.06017 12.1467 6.05549 12.0469 5.14259 11.6681C4.2297 11.2893 3.44955 10.6485 2.9007 9.82648C2.35185 9.00451 2.05893 8.03831 2.05893 7.04994C2.05893 6.06157 2.35185 5.09538 2.9007 4.2734C3.44955 3.45143 4.2297 2.81056 5.14259 2.43175C6.05549 2.05294 7.06017 1.95319 8.02973 2.14509C8.99929 2.33699 9.89023 2.81194 10.59 3.50994C11.0556 3.9744 11.4251 4.52615 11.6771 5.13361C11.9292 5.74106 12.0589 6.39227 12.0589 7.04994C12.0589 7.70761 11.9292 8.35883 11.6771 8.96628C11.4251 9.57373 11.0556 10.1255 10.59 10.5899ZM17.66 17.6599C17.567 17.7537 17.4564 17.8281 17.3346 17.8788C17.2127 17.9296 17.082 17.9557 16.95 17.9557C16.818 17.9557 16.6873 17.9296 16.5654 17.8788C16.4436 17.8281 16.333 17.7537 16.24 17.6599L14.12 15.5399C14.0263 15.447 13.9519 15.3364 13.9011 15.2145C13.8503 15.0927 13.8242 14.962 13.8242 14.8299C13.8242 14.6979 13.8503 14.5672 13.9011 14.4454C13.9519 14.3235 14.0263 14.2129 14.12 14.1199C14.213 14.0262 14.3236 13.9518 14.4454 13.9011C14.5673 13.8503 14.698 13.8241 14.83 13.8241C14.962 13.8241 15.0927 13.8503 15.2146 13.9011C15.3364 13.9518 15.447 14.0262 15.54 14.1199L17.66 16.2399C17.7537 16.3329 17.8281 16.4435 17.8789 16.5654C17.9296 16.6872 17.9558 16.8179 17.9558 16.9499C17.9558 17.082 17.9296 17.2127 17.8789 17.3345C17.8281 17.4564 17.7537 17.567 17.66 17.6599Z" fill="#C7CDD9"/>
</svg>
