<svg width="21" height="21" viewBox="0 0 21 21" fill="none" xmlns="http://www.w3.org/2000/svg">
<path d="M16.9999 13.0001C16.4091 13.004 15.8265 13.1388 15.2939 13.3947C14.7614 13.6506 14.2921 14.0213 13.9199 14.4801L8.81991 12.1301C9.05969 11.3959 9.05969 10.6044 8.81991 9.87011L13.9199 7.52011C14.5215 8.24608 15.3602 8.73619 16.2881 8.90395C17.2159 9.07172 18.1731 8.90634 18.9909 8.43702C19.8086 7.96769 20.4343 7.22459 20.7575 6.33886C21.0806 5.45312 21.0805 4.4817 20.7572 3.59602C20.4339 2.71035 19.8081 1.96736 18.9902 1.49818C18.1724 1.02901 17.2151 0.863808 16.2873 1.03174C15.3596 1.19967 14.5209 1.68993 13.9194 2.41601C13.318 3.14208 12.9923 4.05729 12.9999 5.00011C13.0029 5.23835 13.0263 5.47588 13.0699 5.71011L7.78991 8.14011C7.22699 7.58969 6.51415 7.21763 5.74071 7.07054C4.96727 6.92345 4.16762 7.00788 3.44196 7.31325C2.71629 7.61861 2.09687 8.13133 1.66131 8.78718C1.22574 9.44302 0.993408 10.2128 0.993408 11.0001C0.993408 11.7874 1.22574 12.5572 1.66131 13.2131C2.09687 13.8689 2.71629 14.3816 3.44196 14.687C4.16762 14.9923 4.96727 15.0768 5.74071 14.9297C6.51415 14.7826 7.22699 14.4105 7.78991 13.8601L13.0699 16.2901C13.0263 16.5243 13.0029 16.7619 12.9999 17.0001C12.9999 17.7912 13.2345 18.5646 13.674 19.2224C14.1136 19.8802 14.7383 20.3929 15.4692 20.6956C16.2001 20.9984 17.0043 21.0776 17.7803 20.9233C18.5562 20.7689 19.2689 20.388 19.8283 19.8285C20.3877 19.2691 20.7687 18.5564 20.923 17.7805C21.0774 17.0046 20.9982 16.2003 20.6954 15.4694C20.3927 14.7385 19.88 14.1138 19.2222 13.6742C18.5644 13.2347 17.791 13.0001 16.9999 13.0001ZM16.9999 3.00011C17.3955 3.00011 17.7822 3.11741 18.111 3.33718C18.4399 3.55694 18.6963 3.8693 18.8477 4.23475C18.999 4.6002 19.0386 5.00233 18.9615 5.3903C18.8843 5.77826 18.6938 6.13462 18.4141 6.41433C18.1344 6.69403 17.778 6.88451 17.3901 6.96169C17.0021 7.03886 16.6 6.99925 16.2345 6.84787C15.8691 6.6965 15.5567 6.44015 15.337 6.11125C15.1172 5.78236 14.9999 5.39568 14.9999 5.00011C14.9999 4.46968 15.2106 3.96097 15.5857 3.5859C15.9608 3.21083 16.4695 3.00011 16.9999 3.00011ZM4.99991 13.0001C4.60434 13.0001 4.21766 12.8828 3.88877 12.6631C3.55987 12.4433 3.30352 12.1309 3.15215 11.7655C3.00077 11.4 2.96116 10.9979 3.03834 10.6099C3.11551 10.222 3.30599 9.86561 3.58569 9.5859C3.8654 9.3062 4.22176 9.11571 4.60973 9.03854C4.99769 8.96137 5.39982 9.00098 5.76527 9.15236C6.13073 9.30373 6.44308 9.56008 6.66285 9.88897C6.88261 10.2179 6.99991 10.6046 6.99991 11.0001C6.99991 11.5305 6.78919 12.0393 6.41412 12.4143C6.03905 12.7894 5.53034 13.0001 4.99991 13.0001ZM16.9999 19.0001C16.6043 19.0001 16.2177 18.8828 15.8888 18.6631C15.5599 18.4433 15.3035 18.1309 15.1521 17.7655C15.0008 17.4 14.9612 16.9979 15.0383 16.6099C15.1155 16.222 15.306 15.8656 15.5857 15.5859C15.8654 15.3062 16.2218 15.1157 16.6097 15.0385C16.9977 14.9614 17.3998 15.001 17.7653 15.1524C18.1307 15.3037 18.4431 15.5601 18.6628 15.889C18.8826 16.2179 18.9999 16.6046 18.9999 17.0001C18.9999 17.5305 18.7892 18.0393 18.4141 18.4143C18.039 18.7894 17.5303 19.0001 16.9999 19.0001Z" fill="#F6F8FB"/>
</svg>
