<svg width="16" height="20" viewBox="0 0 16 20" fill="none" xmlns="http://www.w3.org/2000/svg">
<path d="M15.63 1.65031C15.5138 1.55633 15.3781 1.48958 15.2327 1.45497C15.0873 1.42036 14.9361 1.41877 14.79 1.45031C13.7214 1.67425 12.6183 1.67711 11.5486 1.45869C10.4789 1.24028 9.46525 0.805223 8.57001 0.180309C8.40261 0.0641812 8.20374 0.00195312 8.00001 0.00195312C7.79627 0.00195312 7.5974 0.0641812 7.43001 0.180309C6.53476 0.805223 5.52108 1.24028 4.45137 1.45869C3.38166 1.67711 2.27857 1.67425 1.21001 1.45031C1.06394 1.41877 0.912671 1.42036 0.767306 1.45497C0.621942 1.48958 0.486181 1.55633 0.370006 1.65031C0.253985 1.74443 0.160527 1.86334 0.0964981 1.99832C0.0324695 2.1333 -0.00050219 2.28091 5.78149e-06 2.43031V9.88031C-0.000883255 11.3141 0.340779 12.7273 0.996541 14.0023C1.6523 15.2773 2.60319 16.3771 3.77001 17.2103L7.42001 19.8103C7.58937 19.9309 7.7921 19.9957 8.00001 19.9957C8.20791 19.9957 8.41064 19.9309 8.58001 19.8103L12.23 17.2103C13.3968 16.3771 14.3477 15.2773 15.0035 14.0023C15.6592 12.7273 16.0009 11.3141 16 9.88031V2.43031C16.0005 2.28091 15.9675 2.1333 15.9035 1.99832C15.8395 1.86334 15.746 1.74443 15.63 1.65031ZM14 9.88031C14.0008 10.9951 13.7353 12.0939 13.2257 13.0853C12.716 14.0768 11.977 14.9322 11.07 15.5803L8.00001 17.7703L4.93001 15.5803C4.02304 14.9322 3.28399 14.0768 2.77435 13.0853C2.26472 12.0939 1.99924 10.9951 2.00001 9.88031V3.58031C4.09643 3.75974 6.19605 3.27333 8.00001 2.19031C9.80397 3.27333 11.9036 3.75974 14 3.58031V9.88031ZM9.54001 7.59031L6.85001 10.2903L5.96001 9.39031C5.7717 9.202 5.51631 9.09622 5.25001 9.09622C4.9837 9.09622 4.72831 9.202 4.54001 9.39031C4.3517 9.57861 4.24591 9.83401 4.24591 10.1003C4.24591 10.3666 4.3517 10.622 4.54001 10.8103L6.14001 12.4103C6.23297 12.504 6.34357 12.5784 6.46543 12.6292C6.58729 12.68 6.71799 12.7061 6.85001 12.7061C6.98202 12.7061 7.11272 12.68 7.23458 12.6292C7.35644 12.5784 7.46704 12.504 7.56001 12.4103L11 9.00031C11.1883 8.81201 11.2941 8.55661 11.2941 8.29031C11.2941 8.02401 11.1883 7.76861 11 7.58031C10.8117 7.392 10.5563 7.28622 10.29 7.28622C10.0237 7.28622 9.76831 7.392 9.58001 7.58031L9.54001 7.59031Z" fill="#F6F8FB"/>
</svg>
