<svg width="32" height="41" viewBox="0 0 32 41" fill="none" xmlns="http://www.w3.org/2000/svg">
<path d="M31.78 16.1C31.6138 15.7702 31.3595 15.4928 31.0453 15.2986C30.7311 15.1045 30.3693 15.0011 30 15H20V2.99999C20.0214 2.56136 19.8979 2.12786 19.6485 1.7664C19.3991 1.40493 19.0377 1.13561 18.62 0.999995C18.2184 0.867881 17.7853 0.866396 17.3829 0.995754C16.9804 1.12511 16.6293 1.37866 16.38 1.71999L0.379967 23.72C0.179499 24.0097 0.0591245 24.3473 0.0310283 24.6985C0.00293202 25.0497 0.0681109 25.4021 0.219967 25.72C0.359811 26.0835 0.602744 26.3982 0.918947 26.6256C1.23515 26.853 1.61086 26.9831 1.99997 27H12V39C12.0003 39.4217 12.1339 39.8326 12.3818 40.1739C12.6296 40.5151 12.979 40.7693 13.38 40.9C13.5809 40.9623 13.7896 40.9959 14 41C14.3155 41.0008 14.6268 40.9269 14.9084 40.7844C15.1899 40.6419 15.4338 40.4348 15.62 40.18L31.62 18.18C31.8355 17.8816 31.9644 17.5295 31.9926 17.1625C32.0209 16.7955 31.9473 16.4278 31.78 16.1ZM16 32.84V25C16 24.4696 15.7893 23.9609 15.4142 23.5858C15.0391 23.2107 14.5304 23 14 23H5.99997L16 9.15999V17C16 17.5304 16.2107 18.0391 16.5858 18.4142C16.9608 18.7893 17.4695 19 18 19H26L16 32.84Z" fill="#F6F8FB"/>
</svg>
