<svg width="24" height="24" viewBox="0 0 24 24" fill="none" xmlns="http://www.w3.org/2000/svg">
<path d="M20 9.05C20 8.94 20 8.83 20 8.72L19.91 8.12L19.82 7.73C19.82 7.56 19.74 7.39 19.69 7.22C19.64 7.05 19.61 6.95 19.56 6.82C19.5321 6.74141 19.5087 6.66128 19.49 6.58C19.49 6.58 19.49 6.58 19.49 6.53C18.9836 5.18302 18.1953 3.9598 17.1777 2.94226C16.1602 1.92472 14.937 1.13637 13.59 0.63C13.59 0.63 13.59 0.63 13.54 0.63L13.31 0.56L12.89 0.43C12.74 0.43 12.58 0.35 12.43 0.31L11.97 0.21L11.51 0.14C11.35 0.14 11.2 0.14 11.03 0.0799999C10.86 0.0199999 10.68 0.0799999 10.51 0.0799999L10 0H9.60999C9.43999 0 9.26 0 9.09 0C8.92 0 8.76999 -5.58794e-08 8.60999 0.0599999L8.14999 0.13L7.68999 0.23C7.53999 0.23 7.37999 0.3 7.22999 0.35L6.81 0.48L6.58 0.55C6.58 0.55 6.57999 0.55 6.52999 0.55C5.18302 1.05637 3.95979 1.84472 2.94225 2.86226C1.92472 3.8798 1.13636 5.10302 0.629995 6.45C0.629995 6.45 0.629995 6.45 0.629995 6.5C0.611294 6.58128 0.587921 6.66141 0.559995 6.74C0.559995 6.87 0.469995 7 0.429995 7.14C0.389995 7.28 0.339995 7.48 0.299995 7.65L0.209995 8.04L0.119995 8.64C0.119995 8.75 0.119995 8.86 0.119995 8.97C0.119995 9.28 0.119995 9.6 0.119995 9.92C0.119995 10.24 0.119995 10.56 0.119995 10.87C0.119995 10.98 0.119995 11.09 0.119995 11.2L0.209995 11.8L0.299995 12.19C0.299995 12.36 0.379995 12.53 0.429995 12.7C0.479995 12.87 0.509995 12.97 0.559995 13.1C0.587921 13.1786 0.611294 13.2587 0.629995 13.34C0.631898 13.3633 0.631898 13.3867 0.629995 13.41C1.13196 14.7556 1.91785 15.9772 2.93422 16.9919C3.95059 18.0065 5.17358 18.7903 6.52 19.29C6.52 19.29 6.51999 19.29 6.56999 19.29L6.81 19.36L7.21 19.49L7.72 19.62L8.10999 19.71L8.71 19.8H9.04C9.35 19.8 9.67 19.85 9.99 19.85C10.31 19.85 10.63 19.85 10.94 19.8H11.27L11.87 19.71L12.26 19.62L12.77 19.49L13.17 19.36L13.41 19.29C13.41 19.29 13.41 19.29 13.46 19.29C14.8064 18.7903 16.0294 18.0065 17.0458 16.9919C18.0621 15.9772 18.848 14.7556 19.35 13.41C19.3481 13.3867 19.3481 13.3633 19.35 13.34C19.35 13.26 19.4 13.18 19.42 13.1C19.44 13.02 19.51 12.84 19.55 12.7C19.59 12.56 19.64 12.36 19.68 12.19L19.77 11.8L19.86 11.2C19.86 11.09 19.86 10.98 19.86 10.87C19.86 10.56 19.91 10.24 19.91 9.92C19.91 9.6 20 9.36 20 9.05ZM13.7 2.89C15.1864 3.65365 16.3963 4.8636 17.16 6.35L14.3 7.35C13.8854 6.68553 13.3245 6.12458 12.66 5.71L13.7 2.89ZM8.34 2.19C8.55 2.14 8.75 2.11 8.95 2.08H9.18999C9.76176 2.02 10.3382 2.02 10.91 2.08H11.15C11.35 2.08 11.55 2.14 11.76 2.19H11.82L10.82 5.05C10.5488 5.00831 10.2743 4.99157 10 5C9.75542 4.99968 9.51124 5.01975 9.27 5.06L8.27 2.2L8.34 2.19ZM6.39999 2.89L7.39999 5.75C6.73188 6.16338 6.16743 6.72442 5.75 7.39L2.89 6.39C3.6469 4.88874 4.85754 3.66411 6.35 2.89H6.39999ZM2.19 11.71C2.1421 11.5127 2.10868 11.3122 2.09 11.11C2.09 11.02 2.09 10.94 2.09 10.86C2.02332 10.2886 2.02332 9.7114 2.09 9.14C2.09 9.06 2.09 8.98 2.09 8.89C2.10868 8.68783 2.1421 8.4873 2.19 8.29C2.19 8.29 2.19 8.29 2.19 8.23L5.05 9.23C4.96998 9.71338 4.96998 10.2066 5.05 10.69L2.19 11.69C2.19 11.69 2.19 11.73 2.19 11.71ZM6.35 17.11C4.8636 16.3463 3.65365 15.1364 2.89 13.65L5.75 12.65C6.16458 13.3145 6.72552 13.8754 7.39 14.29L6.35 17.11ZM11.71 17.81C11.5 17.86 11.3 17.89 11.1 17.92H10.86C10.2882 17.98 9.71176 17.98 9.14 17.92H8.89999C8.69999 17.92 8.5 17.86 8.29 17.81H8.22999L9.22999 14.95C9.71337 15.03 10.2066 15.03 10.69 14.95L11.69 17.81H11.71ZM11.04 12.81C10.87 12.87 10.7 12.91 10.54 12.95C10.2095 13.0116 9.87049 13.0116 9.54 12.95C9.38 12.95 9.21 12.87 9.04 12.81C8.61793 12.6643 8.23372 12.4261 7.91539 12.113C7.59707 11.7999 7.35266 11.4196 7.2 11V11C7.13947 10.8341 7.09264 10.6635 7.06 10.49C6.99604 10.1597 6.99604 9.82027 7.06 9.49C7.09042 9.32351 7.13389 9.15968 7.18999 9C7.34076 8.58533 7.58114 8.20902 7.894 7.89788C8.20686 7.58675 8.58449 7.34846 9 7.2V7.2C9.17 7.14 9.34 7.1 9.5 7.06C9.83049 6.99843 10.1695 6.99843 10.5 7.06C10.66 7.06 10.83 7.14 11 7.2C11.4136 7.34971 11.7893 7.58855 12.1004 7.89962C12.4114 8.21068 12.6503 8.58635 12.8 9V9C12.8605 9.16589 12.9073 9.33646 12.94 9.51C13.0039 9.84027 13.0039 10.1797 12.94 10.51C12.9073 10.6835 12.8605 10.8541 12.8 11.02C12.6478 11.43 12.4079 11.8017 12.0969 12.1092C11.786 12.4166 11.4116 12.6524 11 12.8L11.04 12.81ZM13.65 17.12L12.65 14.26C13.3145 13.8454 13.8754 13.2845 14.29 12.62L17.15 13.62C16.381 15.1236 15.1558 16.3453 13.65 17.11V17.12ZM18 10.86C18 10.94 18 11.02 18 11.11C17.9813 11.3122 17.9479 11.5127 17.9 11.71C17.9 11.71 17.9 11.71 17.9 11.77L15.04 10.77C15.12 10.2866 15.12 9.79338 15.04 9.31L17.9 8.31C17.9 8.31 17.9 8.31 17.9 8.37C17.9479 8.5673 17.9813 8.76783 18 8.97C18 9.06 18 9.14 18 9.22C18.0667 9.7914 18.0667 10.3686 18 10.94V10.86Z" fill="#F6F8FB"/>
</svg>
