<svg width="15" height="10" viewBox="0 0 15 10" fill="none" xmlns="http://www.w3.org/2000/svg">
<path d="M13.6667 6.88001L7.94668 1.22667C7.82273 1.1017 7.67526 1.00251 7.51278 0.934818C7.3503 0.867127 7.17603 0.832275 7.00001 0.832275C6.824 0.832275 6.64972 0.867127 6.48724 0.934818C6.32476 1.00251 6.1773 1.1017 6.05335 1.22667L0.400013 6.88001C0.275042 7.00396 0.175849 7.15142 0.108157 7.3139C0.0404659 7.47638 0.00561523 7.65066 0.00561523 7.82667C0.00561523 8.00269 0.0404659 8.17696 0.108157 8.33944C0.175849 8.50192 0.275042 8.64939 0.400013 8.77334C0.64983 9.02167 0.987765 9.16106 1.34001 9.16106C1.69226 9.16106 2.0302 9.02167 2.28001 8.77334L7.00001 4.05334L11.72 8.77334C11.9684 9.01967 12.3036 9.15853 12.6533 9.16001C12.8288 9.16102 13.0028 9.12739 13.1652 9.06104C13.3277 8.99468 13.4754 8.89692 13.6 8.77334C13.7294 8.65385 13.8339 8.50989 13.9074 8.34979C13.9809 8.18969 14.0219 8.01662 14.0281 7.84057C14.0343 7.66453 14.0055 7.489 13.9435 7.32412C13.8815 7.15925 13.7874 7.0083 13.6667 6.88001Z" fill="#F6F8FB"/>
</svg>
