<svg width="24" height="24" viewBox="0 0 24 24" fill="none" xmlns="http://www.w3.org/2000/svg">
<path d="M18.42 7.21989C17.809 5.8159 16.7545 4.65097 15.4181 3.90362C14.0817 3.15627 12.5371 2.86773 11.021 3.0822C9.50489 3.29668 8.10094 4.00235 7.02427 5.09107C5.9476 6.17979 5.2576 7.59151 5.06001 9.10989C4.22223 9.31395 3.47281 9.78326 2.92346 10.4479C2.37411 11.1125 2.05423 11.9369 2.01151 12.7981C1.96878 13.6593 2.2055 14.5113 2.68638 15.227C3.16725 15.9427 3.86654 16.4839 4.68001 16.7699C4.78372 16.8018 4.8915 16.8187 5.00001 16.8199C5.26523 16.8623 5.53644 16.7977 5.75398 16.6401C5.97152 16.4826 6.11758 16.2451 6.16001 15.9799C6.20245 15.7147 6.13778 15.4435 5.98025 15.2259C5.82272 15.0084 5.58523 14.8623 5.32001 14.8199C4.94292 14.6838 4.61544 14.4375 4.38007 14.1129C4.14469 13.7884 4.01228 13.4006 4.00001 12.9999C4.00001 12.4695 4.21072 11.9608 4.5858 11.5857C4.96087 11.2106 5.46958 10.9999 6.00001 10.9999C6.26523 10.9999 6.51958 10.8945 6.70712 10.707C6.89465 10.5195 7.00001 10.2651 7.00001 9.99989C7.00257 8.81717 7.4243 7.67365 8.19028 6.77248C8.95626 5.87131 10.0169 5.27085 11.1838 5.07777C12.3506 4.88469 13.5481 5.1115 14.5636 5.7179C15.579 6.32431 16.3466 7.27103 16.73 8.38989C16.7872 8.56173 16.8899 8.71483 17.0273 8.83283C17.1647 8.95083 17.3315 9.02931 17.51 9.0599C18.1113 9.16874 18.6651 9.45863 19.0972 9.89078C19.5293 10.3229 19.8191 10.8767 19.9278 11.4781C20.0366 12.0794 19.9591 12.6997 19.7057 13.2558C19.4523 13.8119 19.0352 14.2774 18.51 14.5899C18.2793 14.7225 18.1107 14.9413 18.0413 15.1983C17.9719 15.4552 18.0074 15.7292 18.14 15.9599C18.2726 16.1906 18.4915 16.3592 18.7484 16.4286C19.0053 16.498 19.2793 16.4625 19.51 16.3299C20.2682 15.8898 20.8974 15.2581 21.3344 14.4981C21.7715 13.7381 22.001 12.8766 22 11.9999C21.997 10.924 21.647 9.87783 21.002 9.0167C20.3571 8.15557 19.4516 7.52544 18.42 7.21989ZM14.79 11.6599C14.411 11.7424 14.0187 11.7431 13.6393 11.662C13.26 11.581 12.9023 11.42 12.59 11.1899C12.4187 11.0647 12.2121 10.9973 12 10.9973C11.7879 10.9973 11.5813 11.0647 11.41 11.1899C11.098 11.4206 10.7403 11.5819 10.3609 11.663C9.98143 11.7441 9.58902 11.743 9.21001 11.6599C9.06395 11.6284 8.91268 11.6299 8.76731 11.6646C8.62195 11.6992 8.48619 11.7659 8.37001 11.8599C8.2553 11.9529 8.16262 12.0703 8.09865 12.2034C8.03467 12.3365 8.00099 12.4822 8.00001 12.6299V15.9999C7.99923 16.717 8.16503 17.4245 8.48434 18.0666C8.80365 18.7086 9.26773 19.2678 9.84001 19.6999L11.41 20.8499C11.5813 20.975 11.7879 21.0425 12 21.0425C12.2121 21.0425 12.4187 20.975 12.59 20.8499L14.16 19.6899C14.7327 19.2604 15.1972 18.7032 15.5166 18.0626C15.836 17.422 16.0016 16.7157 16 15.9999V12.6299C15.999 12.4822 15.9653 12.3365 15.9014 12.2034C15.8374 12.0703 15.7447 11.9529 15.63 11.8599C15.5138 11.7659 15.3781 11.6992 15.2327 11.6646C15.0873 11.6299 14.9361 11.6284 14.79 11.6599ZM14 15.9999C13.9912 16.3864 13.897 16.7662 13.7241 17.1119C13.5512 17.4577 13.3039 17.761 13 17.9999L12 18.7199L11 17.9999C10.6961 17.761 10.4488 17.4577 10.2759 17.1119C10.103 16.7662 10.0088 16.3864 10 15.9999V13.7199C10.6994 13.6885 11.3829 13.5005 12 13.1699C12.6171 13.5005 13.3006 13.6885 14 13.7199V15.9999Z" fill="#F6F8FB"/>
</svg>
