<svg width="24" height="24" viewBox="0 0 24 24" fill="none" xmlns="http://www.w3.org/2000/svg">
<path d="M21 19.9999H18C17.7348 19.9999 17.4804 19.8945 17.2929 19.707C17.1054 19.5195 17 19.2651 17 18.9999V15.9999C18.1936 15.9889 19.3439 15.5512 20.243 14.766C21.142 13.9808 21.7305 12.8998 21.902 11.7185C22.0735 10.5373 21.8168 9.3336 21.1781 8.32512C20.5395 7.31665 19.5612 6.56991 18.42 6.21989C17.809 4.8159 16.7545 3.65097 15.4181 2.90362C14.0817 2.15627 12.5371 1.86773 11.021 2.0822C9.50489 2.29668 8.10094 3.00235 7.02427 4.09107C5.9476 5.17979 5.2576 6.59151 5.06001 8.10989C4.1066 8.33822 3.27023 8.90873 2.70975 9.71308C2.14927 10.5174 1.9037 11.4996 2.01968 12.4731C2.13566 13.4466 2.60511 14.3436 3.33888 14.9938C4.07265 15.6439 5.01964 16.002 6.00001 15.9999H7.00001V18.9999C7.00001 19.2651 6.89466 19.5195 6.70712 19.707C6.51958 19.8945 6.26523 19.9999 6.00001 19.9999H3.00001C2.7348 19.9999 2.48044 20.1053 2.29291 20.2928C2.10537 20.4803 2.00001 20.7347 2.00001 20.9999C2.00001 21.2651 2.10537 21.5195 2.29291 21.707C2.48044 21.8945 2.7348 21.9999 3.00001 21.9999H6.00001C6.79566 21.9999 7.55872 21.6838 8.12133 21.1212C8.68394 20.5586 9.00001 19.7955 9.00001 18.9999V15.9999H11V20.9999C11 21.2651 11.1054 21.5195 11.2929 21.707C11.4804 21.8945 11.7348 21.9999 12 21.9999C12.2652 21.9999 12.5196 21.8945 12.7071 21.707C12.8947 21.5195 13 21.2651 13 20.9999V15.9999H15V18.9999C15 19.7955 15.3161 20.5586 15.8787 21.1212C16.4413 21.6838 17.2044 21.9999 18 21.9999H21C21.2652 21.9999 21.5196 21.8945 21.7071 21.707C21.8947 21.5195 22 21.2651 22 20.9999C22 20.7347 21.8947 20.4803 21.7071 20.2928C21.5196 20.1053 21.2652 19.9999 21 19.9999ZM6.00001 13.9999C5.46958 13.9999 4.96087 13.7892 4.5858 13.4141C4.21073 13.039 4.00001 12.5303 4.00001 11.9999C4.00001 11.4695 4.21073 10.9608 4.5858 10.5857C4.96087 10.2106 5.46958 9.99989 6.00001 9.99989C6.26523 9.99989 6.51958 9.89454 6.70712 9.707C6.89466 9.51946 7.00001 9.26511 7.00001 8.99989C7.00257 7.81717 7.4243 6.67365 8.19028 5.77248C8.95627 4.87131 10.0169 4.27085 11.1838 4.07777C12.3506 3.88469 13.5481 4.1115 14.5636 4.7179C15.579 5.32431 16.3466 6.27103 16.73 7.38989C16.7872 7.56173 16.8899 7.71483 17.0273 7.83283C17.1647 7.95083 17.3315 8.02931 17.51 8.0599C18.2042 8.17964 18.8341 8.53983 19.2893 9.07736C19.7446 9.61489 19.9962 10.2955 20 10.9999C20 11.7955 19.6839 12.5586 19.1213 13.1212C18.5587 13.6838 17.7957 13.9999 17 13.9999H6.00001Z" fill="#F6F8FB"/>
</svg>
